<svg width="31" height="30" viewBox="0 0 31 30" fill="none" xmlns="http://www.w3.org/2000/svg">
<path d="M6.93115 24.5938L9.68115 23.4688C9.47282 22.8438 9.29053 22.2188 9.13428 21.5938C8.97803 20.9688 8.84782 20.3229 8.74365 19.6562L6.93115 20.875V24.5938ZM12.5874 23H18.2124C18.6707 21.6042 19.0145 20.3542 19.2437 19.25C19.4728 18.1458 19.5874 17.1562 19.5874 16.2813C19.5874 13.9896 19.2853 11.9896 18.6812 10.2812C18.077 8.57292 16.9832 6.84375 15.3999 5.09375C13.8166 6.84375 12.7228 8.57292 12.1187 10.2812C11.5145 11.9896 11.2124 13.9896 11.2124 16.2813C11.2124 17.1562 11.327 18.1458 11.5562 19.25C11.7853 20.3542 12.1291 21.6042 12.5874 23ZM15.3999 15.8125C14.8374 15.8125 14.3634 15.6198 13.978 15.2344C13.5926 14.849 13.3999 14.3646 13.3999 13.7813C13.3999 13.2188 13.5926 12.7448 13.978 12.3594C14.3634 11.974 14.8374 11.7812 15.3999 11.7812C15.9624 11.7812 16.4364 11.974 16.8218 12.3594C17.2072 12.7448 17.3999 13.2188 17.3999 13.7813C17.3999 14.3646 17.2072 14.849 16.8218 15.2344C16.4364 15.6198 15.9624 15.8125 15.3999 15.8125ZM23.8687 24.5938V20.875L22.0562 19.6562C21.952 20.3229 21.8218 20.9688 21.6655 21.5938C21.5093 22.2188 21.327 22.8438 21.1187 23.4688L23.8687 24.5938ZM15.3999 0.78125C17.9416 3.13542 19.7697 5.53125 20.8843 7.96875C21.9989 10.4062 22.5562 13.0521 22.5562 15.9062V16.4062L25.5249 18.4062C25.9416 18.6771 26.2645 19.026 26.4937 19.4531C26.7228 19.8802 26.8374 20.3438 26.8374 20.8438V28.9375L19.3999 25.9688H11.3999L3.9624 28.9375V20.8438C3.9624 20.3438 4.07699 19.8802 4.30615 19.4531C4.53532 19.026 4.85824 18.6771 5.2749 18.4062L8.2749 16.4062V16C8.2749 13.1042 8.83219 10.4323 9.94678 7.98438C11.0614 5.53646 12.8791 3.13542 15.3999 0.78125Z" fill="white"/>
</svg>
