<svg width="24" height="24" viewBox="0 0 24 24" fill="none" xmlns="http://www.w3.org/2000/svg">
<path fill-rule="evenodd" clip-rule="evenodd" d="M12.6809 13.8353V19.1938H18.5395V10.7641L12.0378 5.70766L5.53618 10.7641V19.1938H11.3947V13.8353H12.6809ZM4.25 19.8369V10.4505C4.24993 10.3525 4.27226 10.2556 4.31528 10.1676C4.3583 10.0795 4.42089 10.0025 4.49823 9.94231L11.643 4.3855C11.7558 4.29768 11.8948 4.25 12.0378 4.25C12.1808 4.25 12.3198 4.29769 12.4327 4.38551L19.5774 9.94232C19.6548 10.0025 19.7173 10.0795 19.7604 10.1676C19.8034 10.2556 19.8257 10.3525 19.8256 10.4505V19.8369C19.8256 20.0075 19.7579 20.171 19.6373 20.2916C19.5167 20.4122 19.3531 20.48 19.1825 20.48H4.89309C4.72253 20.48 4.55896 20.4122 4.43836 20.2916C4.31775 20.171 4.25 20.0075 4.25 19.8369Z" fill="#C6C6C6"/>
</svg>
