<svg width="20" height="20" viewBox="0 0 20 20" fill="none" xmlns="http://www.w3.org/2000/svg">
<path fill-rule="evenodd" clip-rule="evenodd" d="M10.5817 19.7413C10.4442 19.7471 10.3059 19.75 10.167 19.75C8.75443 19.75 7.41204 19.4496 6.20019 18.9092C5.9684 18.8059 5.74138 18.6937 5.51956 18.5732C2.48024 16.9222 0.416992 13.702 0.416992 10C0.416992 4.61522 4.78222 0.25 10.167 0.25C13.0569 0.25 15.6531 1.50727 17.4385 3.50466C18.4608 4.64833 19.2173 6.03465 19.6109 7.56655C19.6306 7.64337 19.6494 7.72055 19.6673 7.79809C19.8307 8.50569 19.917 9.24277 19.917 10C19.917 15.2458 15.7741 19.524 10.5817 19.7413ZM18.417 10C18.417 14.5563 14.7233 18.25 10.167 18.25C10.0782 18.25 9.98968 18.2486 9.90154 18.2458C9.62013 17.4148 9.46754 16.5243 9.46754 15.5983C9.46754 11.0419 13.1612 7.34827 17.7175 7.34827C17.8064 7.34827 17.8949 7.34967 17.983 7.35246C18.2644 8.18349 18.417 9.07392 18.417 10ZM7.10767 17.6642C7.4835 17.8143 7.87296 17.9376 8.27367 18.0317C8.07383 17.2539 7.96754 16.4385 7.96754 15.5983C7.96754 10.3524 12.1104 6.07422 17.3028 5.85693C17.0756 5.46637 16.8172 5.09617 16.531 4.74973C15.585 4.37176 14.5526 4.16388 13.4717 4.16388C8.91535 4.16388 5.22169 7.85753 5.22169 12.4139C5.22169 14.4085 5.92952 16.2377 7.10767 17.6642ZM4.34122 15.8415C3.94074 14.7752 3.72169 13.6201 3.72169 12.4139C3.72169 7.0291 8.08692 2.66388 13.4717 2.66388C13.6384 2.66388 13.8042 2.66807 13.9689 2.67634C12.8312 2.0845 11.5381 1.75 10.167 1.75C5.61064 1.75 1.91699 5.44365 1.91699 10C1.91699 12.2822 2.84365 14.3479 4.34122 15.8415Z" fill="#F2F2F2"/>
</svg>
